<?xml version="1.0" standalone="no"?>
<!DOCTYPE svg PUBLIC "-//W3C//DTD SVG 20010904//EN"
 "http://www.w3.org/TR/2001/REC-SVG-20010904/DTD/svg10.dtd">
<svg version="1.0" xmlns="http://www.w3.org/2000/svg"
 width="16.000000pt" height="16.000000pt" viewBox="0 0 16.000000 16.000000"
 preserveAspectRatio="xMidYMid meet">
<metadata>
Created by potrace 1.11, written by Peter Selinger 2001-2013
</metadata>
<g transform="translate(0.000000,16.000000) scale(0.002439,-0.002439)"
fill="#000000" stroke="none">
<path d="M3118 6555 c-1 -1 -25 -5 -53 -9 -161 -19 -373 -78 -497 -138 -35
-17 -68 -31 -74 -32 -7 -1 -18 -7 -25 -12 -8 -6 -34 -22 -59 -35 -44 -23 -193
-123 -217 -144 -6 -5 -37 -32 -69 -60 -62 -54 -85 -77 -154 -151 -71 -77 -210
-271 -210 -293 0 -5 -3 -11 -8 -13 -27 -11 -148 -308 -179 -438 -23 -98 -23
-102 -29 -145 -3 -22 -7 -51 -10 -65 -11 -57 -19 -264 -10 -279 4 -5 2 -12 -3
-15 -5 -3 -6 -21 -1 -40 4 -19 4 -39 1 -45 -4 -6 -5 -30 -2 -53 3 -24 4 -73 1
-110 -3 -38 -2 -76 1 -85 3 -10 3 -31 -1 -48 -3 -16 -3 -45 1 -63 3 -18 3 -34
-1 -37 -4 -3 -5 -20 -1 -37 4 -18 5 -44 4 -58 -2 -14 -3 -46 -3 -72 0 -27 0
-56 0 -65 0 -10 0 -29 1 -43 2 -42 1 -74 -2 -103 -3 -25 -7 -27 -49 -27 -25 0
-52 0 -60 0 -8 -1 -42 0 -75 0 -33 0 -82 1 -110 0 -27 0 -76 1 -108 2 -31 2
-57 1 -57 -2 0 -3 -21 -4 -46 -4 -52 2 -137 -22 -201 -54 -64 -33 -156 -125
-191 -190 -64 -120 -61 -22 -61 -1667 0 -965 3 -1516 10 -1543 5 -24 17 -60
26 -80 9 -21 17 -40 17 -45 1 -4 13 -23 29 -41 15 -19 27 -37 27 -40 0 -8 29
-36 75 -72 49 -38 129 -79 175 -90 19 -5 1074 -10 2344 -11 2558 -4 2366 -8
2491 61 54 31 165 133 165 152 0 4 6 15 14 23 8 9 25 50 39 91 l26 75 0 1510
c0 1625 2 1555 -51 1659 -27 54 -108 155 -124 156 -6 0 -17 7 -25 16 -16 20
-104 64 -149 76 -69 17 -101 19 -385 18 -33 0 -96 1 -139 2 -77 3 -80 4 -87
29 -3 15 -3 32 1 39 4 7 4 27 0 46 -4 19 -4 36 0 39 4 3 4 21 0 40 -4 19 -4
37 0 40 4 3 4 21 0 40 -4 19 -4 37 0 40 4 3 4 21 0 40 -4 19 -4 37 0 40 4 3 4
21 0 40 -4 19 -4 37 0 40 4 3 4 21 0 40 -4 19 -4 37 0 40 4 3 4 21 0 40 -4 19
-4 37 0 40 4 3 4 21 0 40 -4 19 -4 37 0 40 4 3 4 21 0 40 -4 19 -4 37 0 40 4
3 4 21 0 40 -4 20 -4 38 1 41 5 3 7 9 4 13 -2 5 -7 66 -10 137 -3 71 -7 145
-10 164 -10 74 -16 106 -25 140 -5 19 -11 47 -14 61 -16 91 -113 329 -188 459
-40 69 -54 90 -60 90 -5 0 -8 5 -8 11 0 25 -119 168 -230 275 -101 98 -292
244 -319 244 -5 0 -14 7 -21 15 -7 8 -21 15 -30 15 -10 0 -20 4 -22 9 -8 22
-310 141 -398 157 -14 3 -32 7 -41 10 -74 22 -209 36 -366 39 -99 2 -183 2
-185 0z m238 -320 c94 -4 137 -9 239 -30 11 -3 45 -12 75 -20 30 -8 62 -17 70
-19 41 -11 229 -93 240 -106 5 -5 36 -23 75 -44 22 -12 87 -56 95 -66 3 -3 27
-23 55 -45 99 -80 238 -239 298 -340 22 -39 126 -244 126 -250 0 -3 11 -40 25
-83 23 -73 39 -145 52 -222 7 -48 17 -510 12 -605 0 -11 0 -54 1 -95 1 -41 2
-79 1 -85 -1 -5 -1 -94 -1 -196 l1 -187 -35 -4 c-19 -2 -35 -2 -35 2 0 3 -66
4 -147 2 -133 -2 -241 -3 -275 -1 -7 0 -38 0 -68 0 -30 -1 -104 -1 -165 -1
-60 -1 -117 -1 -125 -1 -8 -1 -46 -1 -85 0 -38 0 -77 0 -85 0 -8 0 -78 0 -155
0 -77 1 -168 1 -202 1 -35 0 -69 1 -75 1 -7 0 -38 0 -68 0 -30 -1 -104 -1
-165 -1 -60 -1 -117 -1 -125 -1 -8 -1 -46 -1 -85 0 -38 0 -79 0 -90 0 -42 0
-231 -1 -245 0 -64 2 -108 2 -116 0 -5 -1 -13 0 -19 1 -5 1 -46 1 -90 0 -44
-1 -87 -1 -95 -1 -83 2 -108 2 -116 0 -5 -1 -13 -1 -19 0 -5 1 -54 2 -107 3
-54 0 -96 4 -93 8 3 5 5 48 5 97 -1 48 -1 97 -1 108 1 84 1 256 0 262 -1 5 -1
13 1 18 2 11 2 78 0 170 -2 111 8 470 14 495 3 13 8 42 11 65 16 108 82 302
137 400 16 28 31 58 34 68 4 9 10 17 15 17 5 0 9 6 9 13 0 17 118 171 182 237
29 30 78 75 108 100 30 25 57 48 60 51 9 12 147 98 206 129 107 56 284 116
399 135 65 11 106 17 154 20 30 3 56 7 59 9 3 3 8 3 12 1 4 -3 57 -7 116 -10z
m-2116 -2715 c15 4 33 4 40 0 7 -4 25 -4 40 0 15 4 33 4 40 0 7 -4 24 -5 37
-1 14 4 50 4 79 1 30 -3 54 -3 54 1 0 4 16 3 34 -1 19 -4 37 -6 40 -3 4 5 100
4 146 0 14 -2 37 0 51 4 15 4 32 3 39 -1 7 -4 25 -4 40 0 15 4 33 4 40 0 7 -4
25 -4 40 0 15 4 33 4 40 0 7 -4 24 -5 37 -1 14 4 50 4 79 1 30 -3 54 -3 54 1
0 4 16 3 34 -1 19 -4 37 -6 40 -3 2 3 33 4 68 3 88 -2 109 -2 141 -1 15 1 39
1 55 2 15 0 36 2 47 3 11 1 32 -1 46 -5 15 -4 32 -3 39 1 7 5 23 5 34 0 12 -4
30 -4 41 0 11 4 32 4 47 -1 15 -4 30 -4 33 1 3 4 20 5 37 1 18 -4 42 -6 53 -5
24 3 63 4 90 4 11 0 46 0 79 0 32 0 62 -3 67 -6 5 -3 9 -1 9 4 0 6 14 7 34 2
19 -4 37 -6 40 -3 2 3 33 4 68 3 88 -2 109 -2 141 -1 15 1 39 1 55 2 15 0 36
2 47 3 11 1 32 -1 46 -5 15 -4 32 -3 39 1 7 5 23 5 34 0 12 -4 30 -4 41 0 11
4 32 4 47 -1 15 -4 30 -4 33 1 2 4 19 5 36 1 18 -4 59 -4 91 -1 32 3 61 4 63
1 3 -2 26 -3 53 -2 59 2 60 2 159 1 45 0 86 0 90 1 4 1 13 0 18 -1 6 -1 30 -1
55 0 65 1 123 -1 129 -4 3 -2 15 0 26 4 11 4 32 4 46 0 15 -4 32 -4 39 0 7 5
23 5 34 0 12 -4 30 -4 41 0 11 4 32 4 47 -1 15 -4 30 -4 33 1 3 4 20 5 37 1
18 -4 42 -6 53 -5 24 3 63 4 90 4 11 0 46 0 79 0 32 0 62 -3 67 -6 5 -3 9 -1
9 4 0 6 14 7 34 2 19 -4 37 -6 40 -3 2 3 33 4 68 3 88 -2 109 -2 141 -1 15 1
39 1 55 2 162 6 218 -10 266 -74 23 -31 30 -127 25 -324 -1 -16 -1 -44 0 -63
3 -87 4 -133 1 -145 -1 -5 -1 -48 0 -95 1 -47 1 -92 1 -100 -1 -8 -1 -44 0
-80 0 -36 0 -73 0 -82 0 -10 0 -45 0 -78 0 -33 -1 -67 -1 -75 0 -29 0 -45 0
-82 0 -21 -1 -49 -3 -63 -1 -14 0 -40 4 -57 4 -18 3 -33 -1 -33 -4 0 -4 -16 0
-34 4 -19 5 -37 3 -40 -3 -3 -4 -40 -3 -83 0 -43 1 -86 1 -95 0 -10 0 -45 0
-78 0 -33 -1 -68 -1 -77 0 -10 0 -29 1 -43 1 -47 1 -75 -1 -85 -4 -22 -1 -176
5 -184 3 -5 1 -12 -5 -16 -6 -4 -8 -11 -4 -16 3 -5 5 -51 4 -102 -1 -50 -1
-99 -1 -107 1 -8 1 -33 0 -55 0 -22 -1 -47 0 -55 0 -8 0 -55 0 -105 0 -49 0
-97 0 -105 1 -16 0 -126 -1 -170 0 -23 0 -43 3 -120 4 -96 -7 -180 -28 -208
-32 -42 -69 -64 -115 -68 -75 -6 -146 -6 -157 0 -5 4 -12 2 -15 -3 -4 -6 -18
-6 -35 -1 -15 4 -34 4 -42 0 -7 -5 -16 -7 -21 -4 -11 7 -137 9 -143 2 -3 -3
-22 -2 -41 2 -19 4 -36 4 -39 0 -3 -5 -18 -5 -34 0 -15 4 -34 4 -42 0 -7 -5
-16 -7 -21 -4 -11 7 -137 9 -143 2 -3 -3 -22 -2 -41 2 -19 4 -36 4 -39 0 -3
-5 -18 -5 -34 0 -15 4 -34 4 -42 0 -7 -5 -16 -7 -21 -4 -11 7 -137 9 -143 2
-3 -3 -22 -2 -41 2 -19 4 -36 4 -39 0 -3 -5 -18 -5 -34 0 -15 4 -34 4 -42 0
-7 -5 -16 -7 -21 -4 -11 7 -137 9 -143 2 -3 -3 -22 -2 -41 2 -19 4 -36 4 -39
0 -3 -5 -18 -5 -34 0 -15 4 -34 4 -42 0 -7 -5 -17 -6 -22 -3 -12 7 -203 7
-215 -1 -6 -3 -13 -2 -17 4 -4 6 -11 8 -16 4 -12 -7 -199 -8 -206 -1 -2 3 -17
1 -33 -3 -16 -4 -31 -6 -34 -2 -8 7 -162 6 -175 -2 -5 -4 -12 -2 -16 4 -4 6
-11 8 -16 5 -8 -6 -75 -7 -199 -4 -25 0 -49 0 -55 -1 -5 -1 -14 -2 -19 -1 -26
5 -165 3 -174 -3 -6 -3 -13 -2 -17 4 -4 6 -11 8 -16 4 -12 -7 -199 -8 -206 -1
-2 3 -17 1 -33 -3 -16 -4 -31 -6 -34 -2 -8 7 -162 6 -175 -2 -5 -4 -12 -2 -16
4 -4 6 -11 8 -16 5 -8 -6 -75 -7 -199 -4 -25 0 -49 0 -55 -1 -5 -1 -14 -2 -19
-1 -26 5 -165 3 -174 -3 -6 -3 -13 -2 -17 4 -4 6 -11 8 -16 4 -12 -7 -199 -8
-206 -1 -2 3 -17 1 -33 -3 -16 -4 -31 -6 -34 -2 -8 7 -162 6 -175 -2 -5 -4
-12 -2 -15 3 -3 5 -21 5 -41 1 -19 -4 -51 -4 -70 0 -19 4 -37 4 -40 0 -3 -5
-18 -5 -34 0 -15 4 -34 4 -41 0 -7 -5 -18 -6 -24 -4 -6 2 -37 6 -70 8 -95 7
-143 55 -152 151 -3 33 -8 63 -10 67 -3 4 -1 8 4 8 6 0 7 14 2 34 -4 19 -5 37
-3 40 3 3 4 40 3 83 0 43 -1 86 -1 96 0 9 0 44 0 77 0 33 1 68 1 78 0 9 0 28
-1 42 -1 14 -1 33 -1 43 1 9 1 33 1 52 0 19 0 43 1 53 0 9 0 58 -1 107 -1 122
-1 114 1 165 1 25 1 75 0 112 -1 37 1 72 5 78 3 5 1 10 -5 10 -6 0 -9 4 -6 9
5 7 7 108 5 206 0 11 0 43 1 70 1 28 1 77 1 110 0 33 0 67 0 75 0 8 0 45 -1
82 -1 37 1 72 5 78 3 5 1 10 -5 10 -6 0 -9 4 -6 9 5 7 7 108 5 206 0 11 0 43
1 70 1 28 1 88 1 135 0 47 0 99 0 115 1 27 1 47 -2 125 -1 14 -1 33 -1 43 1 9
1 33 1 52 0 19 0 43 1 53 0 18 -1 187 -2 212 -1 67 12 145 29 168 42 57 67 67
170 69 53 2 98 5 101 7 3 3 12 2 20 -3 8 -5 27 -5 42 -1z"/>
<path d="M3165 2870 c-22 -5 -67 -18 -99 -29 -205 -72 -376 -271 -415 -481
-14 -81 -6 -224 18 -294 24 -72 75 -166 110 -202 11 -12 20 -35 20 -50 1 -45
1 -123 0 -191 0 -34 2 -66 5 -72 4 -5 2 -12 -3 -16 -6 -3 -8 -11 -5 -18 2 -7
6 -46 8 -87 3 -41 7 -91 11 -110 8 -42 58 -141 79 -159 9 -8 16 -17 16 -22 0
-21 95 -96 165 -132 59 -29 93 -37 193 -42 242 -13 457 172 487 420 4 33 7 66
7 73 -2 31 -2 144 1 215 1 44 -2 79 -8 81 -5 3 -5 5 2 5 8 1 9 10 3 30 -8 30
-7 34 56 122 160 227 127 558 -76 768 -89 93 -188 151 -305 181 -61 15 -215
21 -270 10z m222 -328 c83 -27 162 -105 193 -194 17 -50 21 -142 7 -194 -10
-38 -45 -98 -82 -139 -50 -56 -62 -82 -64 -144 -1 -29 -4 -58 -7 -62 -3 -5 0
-9 6 -9 6 0 9 -4 5 -9 -3 -6 -5 -47 -5 -93 2 -325 0 -338 -74 -392 -38 -29
-134 -29 -172 0 -69 51 -69 51 -71 317 -3 320 -3 320 -72 397 -65 72 -89 134
-85 226 2 82 3 86 34 147 35 70 113 133 195 156 37 11 149 7 192 -7z"/>
</g>
</svg>
